<svg width="1014" height="779" viewBox="0 0 1014 779" fill="none" xmlns="http://www.w3.org/2000/svg">
<path opacity="0.5" d="M778.809 359.705L7.09651 3.27763C3.78329 1.74737 0 4.16734 0 7.81688V770.715C0 774.479 4.00052 776.893 7.33013 775.139L779.042 368.668C782.708 366.737 782.57 361.442 778.809 359.705Z" fill="url(#paint0_linear_20_32)"/>
<path opacity="0.5" d="M995.453 355.448L234.167 6.49373C227.789 3.5701 224.599 2.10828 222.3 3.58396C220 5.05964 220 8.56783 220 15.5842V762.489C220 769.871 220 773.562 222.41 775.021C224.82 776.481 228.091 774.771 234.633 771.351L995.919 373.401C1003.79 369.288 1007.72 367.231 1007.64 364.115C1007.56 360.998 1003.53 359.148 995.453 355.448Z" fill="url(#paint1_linear_20_32)"/>
<defs>
<linearGradient id="paint0_linear_20_32" x1="759" y1="356.5" x2="-390.334" y2="236.028" gradientUnits="userSpaceOnUse">
<stop stop-opacity="0.5"/>
<stop offset="1" stop-color="#79B3D3"/>
</linearGradient>
<linearGradient id="paint1_linear_20_32" x1="1014" y1="390.068" x2="101.049" y2="388.561" gradientUnits="userSpaceOnUse">
<stop stop-color="#79B3D3" stop-opacity="0.5"/>
<stop offset="1" stop-opacity="0"/>
</linearGradient>
</defs>
</svg>
